HIERARCHY
ROOT hip
{
	OFFSET	0.00  0.00  0.00 
	CHANNELS 6 Xposition Yposition Zposition Xrotation Zrotation Yrotation
	JOINT abdomen
	{
		OFFSET	0.000000 0.000000 0.000000
		CHANNELS 3 Xrotation Zrotation Yrotation
		JOINT chest
		{
			OFFSET	0.000000 5.018152 -1.882228
			CHANNELS 3 Xrotation Zrotation Yrotation
			JOINT neckDummy
			{
				OFFSET	0.000000 8.316447 0.784897
				CHANNELS 3 Xrotation Yrotation Zrotation
				JOINT neck
				{
					OFFSET	0.000000 2.280413 -0.392801
					CHANNELS 3 Xrotation Zrotation Yrotation
					JOINT head
					{
						OFFSET	0.000000 3.496879 0.529469
						CHANNELS 3 Xrotation Zrotation Yrotation
						JOINT figureHair
						{
							OFFSET	0.000000 4.699570 0.720622
							CHANNELS 3 Zrotation Yrotation Xrotation
							End Site
							{
								OFFSET 0.000000 -6.419331 0.000000
							}
						}
					}
				}
			}
			JOINT lCollar
			{
				OFFSET	0.599237 8.316447 0.784897
				CHANNELS 3 Yrotation Zrotation Xrotation
				JOINT lShldr
				{
					OFFSET	6.421198 0.010146 -0.332128
					CHANNELS 3 Zrotation Yrotation Xrotation
					JOINT lForeArm
					{
						OFFSET	10.552783 0.025574 0.125508
						CHANNELS 3 Yrotation Zrotation Xrotation
						JOINT lHand
						{
							OFFSET	11.035963 0.319619 0.041520
							CHANNELS 3 Zrotation Yrotation Xrotation
							End Site
							{
								OFFSET 10.353753 0.000000 0.000000
							}
						}
					}
				}
			}
			JOINT rCollar
			{
				OFFSET	-0.599237 8.316447 0.784897
				CHANNELS 3 Yrotation Zrotation Xrotation
				JOINT rShldr
				{
					OFFSET	-6.421198 0.010146 -0.332128
					CHANNELS 3 Zrotation Yrotation Xrotation
					JOINT rForeArm
					{
						OFFSET	-10.552783 0.025574 0.125508
						CHANNELS 3 Yrotation Zrotation Xrotation
						JOINT rHand
						{
							OFFSET	-11.035963 0.319619 0.041520
							CHANNELS 3 Zrotation Yrotation Xrotation
							End Site
							{
								OFFSET -10.353753 0.000000 0.000000
							}
						}
					}
				}
			}
		}
	}
	JOINT lThigh
	{
		OFFSET	4.500466 -6.400484 -1.832696
		CHANNELS 3 Xrotation Zrotation Yrotation
		JOINT lShin
		{
			OFFSET	-1.359117 -18.918689 1.179887
			CHANNELS 3 Xrotation Zrotation Yrotation
			JOINT lFoot
			{
				OFFSET	-0.652380 -17.215186 -0.312137
				CHANNELS 3 Xrotation Yrotation Zrotation
				End Site
				{
					OFFSET 0.000000 0.000000 10.353752
				}
			}
		}
	}
	JOINT rThigh
	{
		OFFSET	-4.500466 -6.400484 -1.832696
		CHANNELS 3 Xrotation Zrotation Yrotation
		JOINT rShin
		{
			OFFSET	1.359117 -18.918689 1.179887
			CHANNELS 3 Xrotation Zrotation Yrotation
			JOINT rFoot
			{
				OFFSET	0.652380 -17.215186 -0.312137
				CHANNELS 3 Xrotation Yrotation Zrotation
				End Site
				{
					OFFSET 0.000000 0.000000 10.353752
				}
			}
		}
	}
}
MOTION
Frames:     14
Frame Time: 0.100000
0.000000 42.014908 0.240040 0.000000 0.000000 0.000000 0.000000 0.000000 0.000000 0.000000 0.000000 0.000000 0.000000 0.000000 0.000000 0.000000 0.000000 0.000000 0.000000 0.000000 0.000000 0.000000 0.000000 0.000000 2.021920 -5.690310 -0.063351 -70.100700 9.978770 15.991600 -22.515600 -9.303740 0.147736 5.969490 -0.173112 0.175734 -2.021920 5.690310 -0.063351 70.100700 -9.978770 15.991600 22.515600 9.303740 0.147736 -5.969490 0.173112 0.175734 -7.544341 3.962285 0.126597 15.837342 -3.291070 -0.872131 -8.576491 1.070768 -0.847483 -7.531943 -4.331991 0.100592 15.780110 3.271439 0.612621 -8.616927 -1.581442 0.945399 
0.000000 42.014908 0.240040 0.000000 0.000000 0.000000 0.166410 -0.607426 -0.718842 -0.187552 -0.629290 -4.823352 0.000000 0.000000 0.000000 2.438003 1.124354 -0.150271 -3.245063 0.720473 3.166427 0.000000 0.000000 0.000000 2.869282 -5.867068 -0.026678 -69.861618 10.841850 16.013386 -20.421913 -9.662521 0.530866 6.181673 -0.463753 0.269531 -1.876183 6.226917 -0.158701 70.395897 -9.859337 15.903342 22.722290 9.808928 0.063287 -3.943553 1.070977 0.271388 -7.551503 3.904126 0.140824 15.816932 -3.290028 -0.881313 -8.551758 1.071751 -0.791179 -7.449052 -4.197594 0.092807 15.653620 3.265182 0.600347 -8.578678 -1.586688 0.820421 
0.000000 42.014908 0.240040 0.000000 0.000000 0.000000 0.511711 -1.867836 -2.210440 -0.576722 -1.935068 -14.831809 0.000000 0.000000 0.000000 7.496860 3.457388 -0.462083 -9.753568 2.065454 9.526761 0.000000 0.000000 0.000000 4.627557 -6.233840 0.049417 -69.365532 12.632744 16.058594 -16.077515 -10.406996 1.325860 6.621952 -1.066833 0.464161 -1.573779 7.340377 -0.356552 71.008430 -9.611513 15.720206 23.151173 10.857193 -0.111945 0.260267 2.934047 0.469871 -7.566366 3.783445 0.170346 15.774580 -3.287866 -0.900367 -8.500437 1.073791 -0.674348 -7.277054 -3.918719 0.076652 15.391151 3.252198 0.574878 -8.499311 -1.597573 0.561092 
0.000000 42.014908 0.240040 0.000000 0.000000 0.000000 0.888215 -3.242137 -3.836821 -1.001058 -3.358837 -25.744644 0.000000 0.000000 0.000000 13.012842 6.001238 -0.802071 -16.308022 3.170525 15.955801 0.000000 0.000000 0.000000 6.544713 -6.633755 0.132389 -68.824623 14.585465 16.107883 -11.340549 -11.218743 2.192691 7.102015 -1.724409 0.676378 -1.244049 8.554450 -0.572280 71.676315 -9.341295 15.520521 23.618813 12.000183 -0.303011 4.843950 4.965467 0.686289 -7.582571 3.651860 0.202535 15.728401 -3.285508 -0.921143 -8.444478 1.076016 -0.546960 -7.089513 -3.614645 0.059037 15.104967 3.238041 0.547107 -8.412773 -1.609442 0.278330 
0.000000 42.014908 0.240040 0.000000 0.000000 0.000000 1.065026 -3.887528 -4.600591 -1.200332 -4.027458 -30.869459 0.000000 0.000000 0.000000 15.603218 7.195864 -0.961733 -18.068401 2.811028 17.745127 0.000000 0.000000 0.000000 7.445036 -6.821560 0.171354 -68.570602 15.502489 16.131029 -9.116008 -11.599954 2.599766 7.327459 -2.033215 0.776037 -1.089203 9.124595 -0.673590 71.989960 -9.214398 15.426744 23.838419 12.536950 -0.392738 6.996508 5.919449 0.787922 -7.590181 3.590066 0.217651 15.706715 -3.284401 -0.930899 -8.418199 1.077060 -0.487137 -7.001441 -3.471848 0.050765 14.970571 3.231393 0.534066 -8.372132 -1.615016 0.145541 
0.000000 42.014908 0.240040 0.000000 0.000000 0.000000 1.065026 -3.887528 -4.600591 -1.200332 -4.027458 -30.869465 0.000000 0.000000 0.000000 15.603215 7.195863 -0.961733 -15.068401 0.811028 14.945123 0.000000 0.000000 0.000000 7.445036 -6.821560 0.171354 -68.570602 15.502491 16.131025 -9.116008 -11.599960 2.599767 7.327459 -2.033214 0.776037 -1.089203 9.124594 -0.673590 71.989967 -9.214398 15.426737 23.838417 12.536958 -0.392738 6.996509 5.919449 0.787922 -7.590181 3.590066 0.217651 15.706715 -3.284401 -0.930899 -8.418199 1.077060 -0.487137 -7.001441 -3.471848 0.050765 14.970571 3.231393 0.534066 -8.372132 -1.615016 0.145541 
0.000000 42.014908 0.240040 0.000000 0.000000 0.000000 1.065027 -3.887528 -4.600591 -1.200332 -4.027459 -30.869471 0.000000 0.000000 0.000000 15.603212 7.195863 -0.961733 -12.068401 -1.188972 12.145119 0.000000 0.000000 0.000000 7.445037 -6.821560 0.171354 -68.570602 15.502493 16.131021 -9.116008 -11.599967 2.599767 7.327459 -2.033213 0.776037 -1.089202 9.124593 -0.673590 71.989975 -9.214398 15.426730 23.838413 12.536965 -0.392738 6.996509 5.919449 0.787922 -7.590181 3.590066 0.217651 15.706715 -3.284401 -0.930899 -8.418199 1.077060 -0.487137 -7.001441 -3.471848 0.050765 14.970571 3.231393 0.534066 -8.372132 -1.615016 0.145541 
0.000000 42.014908 0.240040 0.000000 0.000000 0.000000 1.065028 -3.887529 -4.600591 -1.200331 -4.027459 -30.869476 0.000000 0.000000 0.000000 15.603210 7.195862 -0.961733 -9.068401 -3.188972 9.345115 0.000000 0.000000 0.000000 7.445038 -6.821560 0.171354 -68.570602 15.502495 16.131016 -9.116009 -11.599974 2.599768 7.327459 -2.033213 0.776037 -1.089202 9.124592 -0.673590 71.989975 -9.214399 15.426723 23.838409 12.536972 -0.392738 6.996509 5.919450 0.787922 -7.590181 3.590066 0.217651 15.706715 -3.284401 -0.930899 -8.418199 1.077060 -0.487137 -7.001441 -3.471848 0.050765 14.970571 3.231393 0.534066 -8.372132 -1.615016 0.145541 
0.000000 42.014908 0.240040 0.000000 0.000000 0.000000 1.065028 -3.887529 -4.600591 -1.200331 -4.027459 -30.869484 0.000000 0.000000 0.000000 15.603208 7.195861 -0.961733 -6.068401 -5.188971 6.545111 0.000000 0.000000 0.000000 7.445038 -6.821560 0.171354 -68.570602 15.502496 16.131012 -9.116009 -11.599981 2.599768 7.327460 -2.033212 0.776037 -1.089201 9.124592 -0.673590 71.989983 -9.214399 15.426717 23.838408 12.536980 -0.392738 6.996509 5.919450 0.787922 -7.590181 3.590066 0.217651 15.706715 -3.284401 -0.930899 -8.418199 1.077060 -0.487137 -7.001441 -3.471848 0.050765 14.970571 3.231393 0.534066 -8.372132 -1.615016 0.145541 
0.000000 42.014908 0.240040 0.000000 0.000000 0.000000 1.065028 -3.887529 -4.600591 -1.200331 -4.027459 -30.869484 0.000000 0.000000 0.000000 15.603208 7.195861 -0.961733 -5.568401 -5.522305 6.078444 0.000000 0.000000 0.000000 7.445038 -6.821560 0.171354 -68.570602 15.502496 16.131012 -9.116009 -11.599980 2.599768 7.327460 -2.033212 0.776037 -1.089201 9.124592 -0.673590 71.989983 -9.214399 15.426718 23.838408 12.536979 -0.392738 6.996509 5.919450 0.787922 -7.590181 3.590066 0.217651 15.706715 -3.284401 -0.930899 -8.418199 1.077060 -0.487137 -7.001441 -3.471848 0.050765 14.970571 3.231393 0.534066 -8.372132 -1.615016 0.145541 
0.000000 42.014908 0.240040 0.000000 0.000000 0.000000 1.065028 -3.887529 -4.600591 -1.200331 -4.027459 -30.869484 0.000000 0.000000 0.000000 15.603208 7.195861 -0.961733 -5.068401 -5.855638 5.611778 0.000000 0.000000 0.000000 7.445038 -6.821560 0.171354 -68.570602 15.502496 16.131012 -9.116009 -11.599979 2.599768 7.327460 -2.033212 0.776037 -1.089201 9.124592 -0.673590 71.989983 -9.214399 15.426719 23.838408 12.536978 -0.392738 6.996509 5.919450 0.787922 -7.590181 3.590066 0.217651 15.706715 -3.284401 -0.930899 -8.418199 1.077060 -0.487137 -7.001441 -3.471848 0.050765 14.970571 3.231393 0.534066 -8.372132 -1.615016 0.145541 
0.000000 42.014908 0.240040 0.000000 0.000000 0.000000 1.065028 -3.887529 -4.600591 -1.200331 -4.027459 -30.869484 0.000000 0.000000 0.000000 15.603209 7.195861 -0.961733 -4.568401 -6.188972 5.145112 0.000000 0.000000 0.000000 7.445038 -6.821560 0.171354 -68.570602 15.502496 16.131012 -9.116009 -11.599978 2.599768 7.327460 -2.033212 0.776037 -1.089201 9.124592 -0.673590 71.989983 -9.214399 15.426720 23.838408 12.536977 -0.392738 6.996509 5.919450 0.787922 -7.590181 3.590066 0.217651 15.706715 -3.284401 -0.930899 -8.418199 1.077060 -0.487137 -7.001441 -3.471848 0.050765 14.970571 3.231393 0.534066 -8.372132 -1.615016 0.145541 
0.000000 42.014908 0.240040 0.000000 0.000000 0.000000 1.065028 -3.887529 -4.600591 -1.200331 -4.027459 -30.869482 0.000000 0.000000 0.000000 15.603209 7.195861 -0.961733 -4.068401 -6.522305 4.678446 0.000000 0.000000 0.000000 7.445038 -6.821560 0.171354 -68.570602 15.502496 16.131014 -9.116009 -11.599977 2.599768 7.327460 -2.033212 0.776037 -1.089202 9.124592 -0.673590 71.989983 -9.214399 15.426721 23.838408 12.536976 -0.392738 6.996509 5.919450 0.787922 -7.590181 3.590066 0.217651 15.706715 -3.284401 -0.930899 -8.418199 1.077060 -0.487137 -7.001441 -3.471848 0.050765 14.970571 3.231393 0.534066 -8.372132 -1.615016 0.145541 
0.000000 42.014908 0.240040 0.000000 0.000000 0.000000 1.065028 -3.887529 -4.600591 -1.200331 -4.027459 -30.869480 0.000000 0.000000 0.000000 15.603209 7.195862 -0.961733 -3.568401 -6.855639 4.211780 0.000000 0.000000 0.000000 7.445038 -6.821560 0.171354 -68.570602 15.502495 16.131016 -9.116009 -11.599977 2.599768 7.327460 -2.033212 0.776037 -1.089202 9.124592 -0.673590 71.989975 -9.214399 15.426722 23.838409 12.536976 -0.392738 6.996509 5.919450 0.787922 -7.590181 3.590066 0.217651 15.706715 -3.284401 -0.930899 -8.418199 1.077060 -0.487137 -7.001441 -3.471848 0.050765 14.970571 3.231393 0.534066 -8.372132 -1.615016 0.145541 
